<svg version="1.1" id="Layer_1" xmlns="http://www.w3.org/2000/svg" xmlns:xlink="http://www.w3.org/1999/xlink" x="0px" y="0px"
	 width="100%" viewBox="0 0 500 500" enable-background="new 0 0 500 500" xml:space="preserve">
<path fill="#FFFFFF" opacity="1.000000" stroke="none" 
	d="
M232.000000,501.000000 
	C154.666687,501.000000 77.833366,501.000000 1.000041,501.000000 
	C1.000027,334.333405 1.000027,167.666779 1.000014,1.000131 
	C167.666565,1.000087 334.333130,1.000087 500.999756,1.000044 
	C500.999847,167.666519 500.999847,334.333038 500.999939,500.999786 
	C411.500000,501.000000 322.000000,501.000000 232.000000,501.000000 
M373.159882,321.226440 
	C373.159882,321.226440 373.251160,321.252136 373.655090,321.215363 
	C373.655090,321.215363 373.982208,320.969910 374.603485,320.810181 
	C376.720764,317.599640 374.062286,316.375946 372.011414,316.329285 
	C365.001923,316.169800 357.980103,316.550934 350.229370,316.678528 
	C349.495911,316.717255 348.762421,316.755981 347.690765,316.440216 
	C347.118347,316.626038 346.545959,316.811890 345.290283,316.995941 
	C344.607361,316.981995 343.924469,316.968048 343.090454,316.932587 
	C343.090454,316.932587 343.094299,316.780029 343.042511,315.969025 
	C342.555695,314.380035 342.068909,312.791016 341.582123,311.202026 
	C340.847015,311.430634 339.525604,311.557953 339.465912,311.903259 
	C338.726562,316.183289 335.428223,314.882996 332.871826,314.976807 
	C329.583435,315.097351 326.287231,315.006104 323.176178,314.214996 
	C327.244995,313.560059 331.313782,312.905121 335.382599,312.250183 
	C330.465302,311.056274 325.589813,310.834686 320.765869,311.234772 
	C319.745789,311.319366 318.914307,313.678101 317.227081,315.008575 
	C315.483765,315.340424 313.740448,315.672302 311.349884,315.731628 
	C309.864166,316.075287 308.378479,316.418945 306.858704,316.866760 
	C306.858704,316.866760 306.751495,316.889801 306.019043,317.167633 
	C305.695770,318.706726 305.140564,320.238831 305.093689,321.786285 
	C304.963928,326.065918 305.222870,330.364075 304.929993,334.627563 
	C304.849152,335.804535 303.367004,337.854767 302.539612,337.848877 
	C298.158112,337.817657 293.780365,337.258484 289.278442,335.972412 
	C289.314453,330.684113 289.350433,325.395813 289.999603,319.866180 
	C289.716858,318.377136 289.434113,316.888092 289.151367,315.399017 
	C287.424042,315.910309 285.696716,316.421600 283.997467,316.993805 
	C283.997467,316.993805 283.935394,316.968445 283.203827,317.053650 
	C281.772400,317.404388 280.340942,317.755127 278.982666,318.072235 
	C278.982666,318.072235 278.912140,318.089569 278.796295,317.579376 
	C278.507599,317.406616 278.218933,317.233826 277.939240,317.007782 
	C277.939240,317.007782 277.993286,317.007294 277.989471,316.264252 
	C277.470856,315.541229 276.792084,314.145660 276.464233,314.223724 
	C275.549835,314.441498 274.780914,315.270020 273.885620,316.164764 
	C273.885620,316.164764 273.845490,316.477173 272.950256,316.657501 
	C266.733398,316.975739 260.516571,317.293945 253.804031,316.816467 
	C252.318146,316.661774 250.832245,316.507080 248.627609,316.391357 
	C247.428619,316.317169 246.229630,316.242981 244.918137,315.431122 
	C239.953461,308.561646 233.028107,311.560089 226.669220,311.117218 
	C227.197495,313.286957 227.568512,314.810791 227.168030,316.621094 
	C225.802536,316.803284 224.437057,316.985474 222.657257,316.600677 
	C219.066559,316.066406 215.490356,315.251495 211.881683,315.065125 
	C206.762589,314.800720 201.617050,314.902252 196.487701,315.035645 
	C193.306244,315.118378 190.548126,315.071960 189.740509,311.031281 
	C189.573654,310.196411 187.895859,309.663574 187.388260,309.315979 
	C186.420685,312.444977 185.674423,314.858276 184.271652,317.139221 
	C183.854614,316.984558 183.437576,316.829865 182.843964,316.018982 
	C177.368317,308.445312 169.688950,311.478607 161.270233,311.069489 
	C163.166290,312.669159 163.938904,313.321014 164.711517,313.972839 
	C161.436432,313.497986 157.920486,317.345001 155.109634,313.321411 
	C152.066544,315.427094 147.403671,311.609772 144.340332,316.233276 
	C143.886673,316.206024 143.433014,316.178772 142.992401,315.263153 
	C142.524673,310.609253 138.266815,309.355225 133.233780,311.883179 
	C134.142166,313.270294 135.080231,314.702698 135.259308,316.251892 
	C133.506012,316.499084 131.752701,316.746277 129.591095,316.436005 
	C125.084084,314.426880 123.447899,315.312927 122.345093,320.821045 
	C124.007782,320.894287 125.593498,320.964142 127.169632,321.963074 
	C127.081055,326.972168 126.992485,331.981262 126.191032,337.007721 
	C122.109833,339.125763 125.396034,341.688232 126.057030,343.776123 
	C126.810631,346.156555 128.806137,346.900421 131.765991,344.926086 
	C132.504608,345.016632 133.243225,345.107178 134.006760,345.921173 
	C134.868988,346.905945 135.731216,347.890717 136.593430,348.875488 
	C137.403168,347.664917 138.212906,346.454315 139.885422,345.113342 
	C141.917877,345.155579 143.950348,345.197845 146.087799,345.914062 
	C146.727463,346.969849 147.367126,348.025635 148.420898,349.764893 
	C149.905853,347.889526 150.959854,346.558441 152.755463,345.100616 
	C153.752350,345.020935 154.749252,344.941254 156.542465,344.952484 
	C157.817276,346.170959 159.092102,347.389404 160.168732,348.418457 
	C162.148682,348.558472 164.036011,348.670166 165.919220,348.830048 
	C169.034042,349.094604 171.884933,348.873291 173.804428,345.103363 
	C174.863434,345.152679 175.922455,345.201996 177.385086,345.800659 
	C179.772583,346.733582 182.882782,349.091553 184.405533,348.319305 
	C188.235413,346.377045 191.147354,347.616028 194.691849,348.553375 
	C198.090591,349.452179 202.445435,350.566742 204.812286,345.082642 
	C205.888794,345.119293 206.965317,345.155945 208.534927,345.664825 
	C213.523117,345.086609 216.043976,352.747223 221.924194,350.263641 
	C219.976837,347.799072 218.391129,345.792206 216.861145,343.739166 
	C216.861145,343.739166 216.788666,343.742035 217.484024,344.144897 
	C219.994156,344.417969 222.504303,344.691040 225.844635,344.930420 
	C227.222992,345.029510 228.601349,345.128601 230.013336,346.002899 
	C230.453568,346.839233 230.922760,348.416199 231.329666,348.400299 
	C236.992889,348.178925 241.818878,350.768097 246.841934,352.714844 
	C246.911011,352.741608 247.182693,352.245636 247.457581,351.854584 
	C246.584808,349.797058 242.296936,348.320038 246.620255,345.069946 
	C247.686295,345.238983 248.752319,345.408020 249.939606,346.286896 
	C249.965576,346.524719 249.991531,346.762573 249.553268,347.337738 
	C250.038254,347.887329 250.523224,348.436920 251.669525,348.989258 
	C252.110413,348.988770 252.551300,348.988281 253.736816,348.981445 
	C254.489990,347.986816 255.243164,346.992188 256.829987,346.003357 
	C258.219330,346.007263 259.608673,346.011169 261.072906,346.727905 
	C263.404022,350.699127 258.928772,350.527039 256.842224,352.478577 
	C261.222626,353.169769 264.771667,354.021881 266.695648,349.013062 
	C267.461578,348.671875 268.227509,348.330688 269.000000,348.000000 
	C269.000000,348.000000 268.990387,347.989899 269.593048,347.982971 
	C270.065430,347.659088 270.537781,347.335175 271.602631,346.962006 
	C272.070343,346.644379 272.538055,346.326752 273.762878,346.090179 
	C275.503693,346.384491 277.244537,346.678802 279.774200,346.985229 
	C281.548645,346.631958 283.323090,346.278656 285.752197,345.944305 
	C286.503967,345.617798 287.255737,345.291290 288.935822,344.991852 
	C293.286163,345.069183 297.636475,345.146515 302.130005,345.876556 
	C303.684021,347.017487 305.238007,348.158447 307.059418,349.495697 
	C307.930786,347.407227 308.479828,346.091217 309.350159,344.396881 
	C309.350159,344.396881 309.821869,344.242188 310.052612,345.033356 
	C314.395813,350.441254 315.768433,350.465607 319.653229,345.059814 
	C320.104065,345.088043 320.554871,345.116272 321.188354,345.434113 
	C321.456696,345.346619 321.725037,345.259155 322.925751,345.066864 
	C329.557800,345.009735 336.189850,344.952606 343.677917,344.969910 
	C344.822174,344.960602 345.966431,344.951294 348.029266,344.991272 
	C356.783875,344.991272 365.538513,344.991272 374.393402,344.991272 
	C374.393402,342.829071 374.393402,341.144318 374.393402,338.746643 
	C368.936859,338.746643 363.929749,338.746643 358.268402,338.746643 
	C359.484802,336.817352 360.178864,335.716492 361.518311,334.626587 
	C362.173035,333.713409 362.827759,332.800232 364.006744,331.419769 
	C366.146942,329.025909 368.287140,326.632019 370.937744,324.098236 
	C371.348236,323.553558 371.758759,323.008850 372.690063,322.174438 
	C372.860413,321.829987 373.030762,321.485535 373.159882,321.226440 
M187.885513,223.202835 
	C183.335403,229.922409 178.490189,236.463943 174.304077,243.403122 
	C167.959351,253.920532 169.651459,264.035004 176.883774,273.557800 
	C179.796341,277.392761 182.608902,281.303650 185.142578,285.988770 
	C185.108582,287.478851 184.916611,288.984985 185.066513,290.456329 
	C185.958359,299.210114 187.075409,300.943268 195.776108,301.208496 
	C221.505539,301.992920 247.250031,302.491821 272.990814,302.603638 
	C285.429535,302.657684 297.877502,301.669922 310.308807,300.941254 
	C311.847229,300.851105 314.449463,299.630890 314.611267,298.622009 
	C315.373810,293.867493 315.457733,289.004181 316.396271,283.822998 
	C317.425690,282.740204 318.532562,281.720459 319.472443,280.564880 
	C328.268921,269.749634 335.872986,258.457489 327.466644,244.102478 
	C323.351746,237.075699 318.140442,230.690994 313.186981,223.122345 
	C312.786377,218.178650 312.239380,213.240906 312.037750,208.289108 
	C311.908234,205.108810 310.564789,204.027176 307.447601,203.956055 
	C300.177002,203.790192 292.913544,203.308975 285.636993,202.144958 
	C286.272003,199.912140 286.959839,197.692764 287.532593,195.444077 
	C289.637787,187.178970 291.587463,178.791748 288.293732,170.479828 
	C283.016022,157.161026 275.043945,145.554214 264.217529,136.141602 
	C254.889206,128.031464 247.462357,127.797874 238.041000,135.770966 
	C232.916199,140.107986 228.547577,145.449554 224.338089,150.736328 
	C211.734589,166.565399 208.055771,183.828018 215.942429,202.929871 
	C208.675262,203.278839 201.410767,203.718887 194.139633,203.932648 
	C191.168991,204.019989 190.079819,205.375778 189.874557,208.174164 
	C189.511368,213.125275 188.929382,218.060349 187.885513,223.202835 
M117.027084,337.810883 
	C117.368530,338.370972 117.709976,338.931030 118.498726,340.224823 
	C118.498726,334.071381 118.498726,328.882690 118.498726,323.693970 
	C118.001083,323.689392 117.503441,323.684814 117.005798,323.680206 
	C117.005798,328.105896 117.005798,332.531586 117.027084,337.810883 
M200.539948,311.002441 
	C198.560364,311.107697 196.580795,311.212952 194.601212,311.318207 
	C194.647400,311.645233 194.693588,311.972260 194.739792,312.299286 
	C198.935226,312.299286 203.130661,312.299286 207.326111,312.299286 
	C207.316193,311.867004 207.306290,311.434723 207.296387,311.002441 
	C205.348587,311.002441 203.400772,311.002441 200.539948,311.002441 
M158.946136,307.312317 
	C158.025925,306.722778 157.105698,306.133240 156.185486,305.543701 
	C156.059906,306.527893 155.934326,307.512085 155.808731,308.496277 
	C156.820404,308.339752 157.832092,308.183197 158.946136,307.312317 
M220.121796,312.791779 
	C220.436401,311.789337 220.750992,310.786865 221.065598,309.784424 
	C220.316345,309.641907 219.567078,309.499390 218.817810,309.356873 
	C219.012161,310.518402 219.206497,311.679901 220.121796,312.791779 
M150.388458,307.905243 
	C149.815659,306.989197 149.242874,306.073120 148.670090,305.157074 
	C148.165314,305.662842 147.660553,306.168610 147.155777,306.674377 
	C148.070007,307.249115 148.984238,307.823853 150.388458,307.905243 
M154.696777,350.350830 
	C154.348038,351.062744 153.999298,351.774628 153.650543,352.486511 
	C154.088150,352.574249 154.525757,352.661987 154.963348,352.749756 
	C155.089279,351.985199 155.215225,351.220642 154.696777,350.350830 
M210.119278,351.275513 
	C209.575455,351.467773 209.031631,351.660065 208.487808,351.852325 
	C208.615295,352.131012 208.742783,352.409729 208.870270,352.688416 
	C209.430069,352.362457 209.989868,352.036499 210.119278,351.275513 
M273.429413,351.702850 
	C273.703125,351.989563 273.976837,352.276276 274.250549,352.562988 
	C274.369202,352.449493 274.597260,352.243561 274.590729,352.235840 
	C274.335297,351.933502 274.058472,351.649200 273.429413,351.702850 
M147.390411,352.202698 
	C147.785538,352.206909 148.180679,352.211090 148.575806,352.215302 
	C148.577332,352.051331 148.589844,351.744873 148.578796,351.744019 
	C148.185593,351.713715 147.790176,351.712036 147.390411,352.202698 
z"/>
<path fill="#555554" opacity="1.000000" stroke="none" 
	d="
M285.647217,202.955490 
	C292.913544,203.308975 300.177002,203.790192 307.447601,203.956055 
	C310.564789,204.027176 311.908234,205.108810 312.037750,208.289108 
	C312.239380,213.240906 312.786377,218.178650 313.159332,224.007446 
	C312.636230,244.486435 312.140747,264.080353 311.639465,283.903503 
	C312.512451,283.961670 314.148102,284.070648 315.783722,284.179626 
	C315.457733,289.004181 315.373810,293.867493 314.611267,298.622009 
	C314.449463,299.630890 311.847229,300.851105 310.308807,300.941254 
	C297.877502,301.669922 285.429535,302.657684 272.990814,302.603638 
	C247.250031,302.491821 221.505539,301.992920 195.776108,301.208496 
	C187.075409,300.943268 185.958359,299.210114 185.066513,290.456329 
	C184.916611,288.984985 185.108582,287.478851 185.680618,285.500122 
	C189.258560,284.732849 191.393814,284.269501 190.907455,279.999908 
	C189.860458,270.808594 189.322830,261.544617 188.948257,252.295349 
	C188.553192,242.540070 188.590546,232.767273 188.438980,223.002136 
	C188.929382,218.060349 189.511368,213.125275 189.874557,208.174164 
	C190.079819,205.375778 191.168991,204.019989 194.139633,203.932648 
	C201.410767,203.718887 208.675262,203.278839 216.866425,202.926468 
	C219.319565,202.663757 220.848709,202.404449 222.800049,202.293121 
	C241.740341,202.535904 260.258453,202.630676 279.209106,202.813812 
	C281.643494,202.919952 283.645355,202.937729 285.647217,202.955490 
M241.519592,246.101883 
	C241.519592,247.211273 241.519592,248.320663 241.519592,249.888855 
	C247.278549,258.936249 254.122635,258.067474 260.805206,249.524658 
	C257.585114,247.769714 258.684418,246.514160 260.777222,245.844116 
	C260.379852,244.582947 260.267944,243.217285 259.586853,242.254105 
	C257.481110,239.276169 255.694763,235.472977 252.757797,233.863434 
	C250.204956,232.464355 246.211166,233.885818 244.356110,237.076630 
	C242.708740,239.910187 241.576447,243.043167 240.216812,246.043991 
	C240.381424,246.064896 240.546051,246.085815 241.519592,246.101883 
z"/>
<path fill="#FB9352" opacity="1.000000" stroke="none" 
	d="
M222.377869,202.145126 
	C220.848709,202.404449 219.319565,202.663757 217.322144,202.864868 
	C208.055771,183.828018 211.734589,166.565399 224.338089,150.736328 
	C228.547577,145.449554 232.916199,140.107986 238.041000,135.770966 
	C247.462357,127.797874 254.889206,128.031464 264.217529,136.141602 
	C275.043945,145.554214 283.016022,157.161026 288.293732,170.479828 
	C291.587463,178.791748 289.637787,187.178970 287.532593,195.444077 
	C286.959839,197.692764 286.272003,199.912140 285.642090,202.550232 
	C283.645355,202.937729 281.643494,202.919952 279.239197,202.437454 
	C279.961151,197.168396 281.193695,192.386032 282.175049,187.552673 
	C282.930542,183.831711 281.074127,181.572388 277.584320,180.408508 
	C260.040436,174.557480 242.533218,175.783035 225.233948,181.191589 
	C219.239822,183.065628 218.475494,185.286392 219.687103,191.537613 
	C220.380081,195.112976 221.467865,198.611832 222.377869,202.145126 
z"/>
<path fill="#F69253" opacity="1.000000" stroke="none" 
	d="
M188.162247,223.102478 
	C188.590546,232.767273 188.553192,242.540070 188.948257,252.295349 
	C189.322830,261.544617 189.860458,270.808594 190.907455,279.999908 
	C191.393814,284.269501 189.258560,284.732849 185.842819,285.095734 
	C182.608902,281.303650 179.796341,277.392761 176.883774,273.557800 
	C169.651459,264.035004 167.959351,253.920532 174.304077,243.403122 
	C178.490189,236.463943 183.335403,229.922409 188.162247,223.102478 
z"/>
<path fill="#F89354" opacity="1.000000" stroke="none" 
	d="
M316.089996,284.001312 
	C314.148102,284.070648 312.512451,283.961670 311.639465,283.903503 
	C312.140747,264.080353 312.636230,244.486435 313.278503,224.454102 
	C318.140442,230.690994 323.351746,237.075699 327.466644,244.102478 
	C335.872986,258.457489 328.268921,269.749634 319.472443,280.564880 
	C318.532562,281.720459 317.425690,282.740204 316.089996,284.001312 
z"/>
<path fill="#FDFAF2" opacity="1.000000" stroke="none" 
	d="
M173.017624,345.237427 
	C171.884933,348.873291 169.034042,349.094604 165.919220,348.830048 
	C164.036011,348.670166 162.148682,348.558472 160.168732,348.418457 
	C159.092102,347.389404 157.817276,346.170959 156.199310,344.487122 
	C155.856171,342.579407 155.856171,341.137085 155.856171,338.919128 
	C148.060776,338.919128 140.726013,338.919128 133.071472,338.919128 
	C133.071472,334.347870 133.239243,330.542816 133.021515,326.759918 
	C132.826782,323.376953 133.898361,321.944275 137.499039,322.115448 
	C142.626556,322.359222 147.785019,322.304016 152.908203,322.002197 
	C153.980209,321.939056 154.956329,320.248291 155.976624,319.307526 
	C154.970703,318.286316 154.091446,316.600250 152.933044,316.379578 
	C150.365860,315.890533 147.658493,316.137207 145.008301,316.083893 
	C147.403671,311.609772 152.066544,315.427094 155.109634,313.321411 
	C157.920486,317.345001 161.436432,313.497986 164.711517,313.972839 
	C163.938904,313.321014 163.166290,312.669159 161.270233,311.069489 
	C169.688950,311.478607 177.368317,308.445312 182.498749,316.400482 
	C179.015244,316.625519 175.876541,316.327484 172.738770,316.336945 
	C158.689163,316.379364 158.720947,316.505157 158.752441,330.381622 
	C158.786545,345.408081 158.228531,344.885315 173.017624,345.237427 
z"/>
<path fill="#F4975B" opacity="1.000000" stroke="none" 
	d="
M254.299713,317.612183 
	C260.516571,317.293945 266.733398,316.975739 273.736603,316.715149 
	C275.007568,316.763550 275.492157,316.754303 276.305603,316.836060 
	C277.087372,316.953827 277.540314,316.980560 277.993286,317.007294 
	C277.993286,317.007294 277.939240,317.007782 278.028778,317.263947 
	C278.315216,317.804321 278.579834,317.994141 278.912140,318.089569 
	C278.912140,318.089569 278.982666,318.072235 279.073730,318.446716 
	C279.727173,320.676849 280.703522,322.517273 280.772491,324.391052 
	C280.961334,329.523438 280.768463,334.669830 280.497833,340.036865 
	C279.827148,341.462097 279.385284,342.661194 278.557159,343.959412 
	C276.295990,344.365112 274.305267,344.381836 272.583069,345.070343 
	C271.215088,345.617249 270.175659,346.985992 268.990387,347.989899 
	C268.990387,347.989899 269.000000,348.000000 268.585083,347.964905 
	C266.797699,347.883148 265.425171,347.836456 264.031097,347.432556 
	C263.009460,346.444580 262.009430,345.813812 260.610229,345.114197 
	C256.359772,345.312805 253.647537,343.863556 252.611710,339.740356 
	C252.604080,339.179657 252.423172,338.935242 252.171967,338.351471 
	C252.182083,335.335114 252.142365,332.746887 252.252899,330.018799 
	C252.446136,329.749237 252.556519,329.593842 252.518860,329.494812 
	C252.425583,329.249603 252.264557,329.030182 252.186523,328.412659 
	C252.928070,324.553986 253.613907,321.083099 254.299713,317.612183 
M262.705017,322.114532 
	C258.934937,321.541840 257.645782,323.184357 258.004761,326.890656 
	C258.291260,329.848755 257.810120,332.887268 258.168182,335.829437 
	C258.312195,337.012634 259.691772,338.789764 260.682861,338.914368 
	C261.656525,339.036804 262.893127,337.453949 263.935486,336.530426 
	C264.877197,335.696075 265.596924,334.260437 266.635620,334.011261 
	C267.313721,333.848541 268.925537,335.179169 269.185455,336.103394 
	C270.111694,339.397339 271.921234,339.797180 274.598175,338.566040 
	C274.598175,333.007385 274.598175,327.660736 274.598175,322.142212 
	C270.607513,322.142212 267.129944,322.142212 262.705017,322.114532 
z"/>
<path fill="#F4975B" opacity="1.000000" stroke="none" 
	d="
M208.041824,345.192566 
	C206.965317,345.155945 205.888794,345.119293 203.953064,345.077606 
	C198.853333,345.072571 194.612793,345.072571 190.284882,345.072571 
	C190.284882,335.189941 190.284882,326.158844 190.284882,316.820770 
	C197.891144,316.820770 205.146774,316.717499 212.397522,316.860840 
	C216.514847,316.942230 218.107071,319.647644 218.207977,323.451843 
	C218.317810,327.592590 218.394821,331.734161 218.340469,336.286438 
	C218.040787,338.406006 217.886795,340.114532 217.504517,341.992340 
	C217.113739,342.688416 216.951202,343.215240 216.788666,343.742035 
	C216.788666,343.742035 216.861145,343.739166 216.451767,343.847290 
	C213.375534,344.367828 210.708679,344.780212 208.041824,345.192566 
M208.314926,339.124084 
	C211.811813,339.660187 212.883713,338.175323 212.911545,334.672333 
	C213.010345,322.234009 213.126999,322.438019 201.286682,322.066498 
	C196.837128,321.926880 195.567627,323.173645 195.721313,327.639984 
	C196.118607,339.186218 195.906662,339.193512 208.314926,339.124084 
z"/>
<path fill="#F4975B" opacity="1.000000" stroke="none" 
	d="
M249.818359,345.577057 
	C248.752319,345.408020 247.686295,345.238983 245.836761,345.069519 
	C240.028763,345.121979 235.004227,345.174835 229.979706,345.227692 
	C228.601349,345.128601 227.222992,345.029510 225.235641,344.708801 
	C223.568680,343.557129 222.510712,342.627075 221.376694,341.299561 
	C221.188950,339.264160 221.077240,337.626190 221.002167,335.522644 
	C221.050430,332.621246 220.825455,330.155426 221.129471,327.756683 
	C221.579971,324.202057 222.405609,320.694977 223.071564,317.167664 
	C224.437057,316.985474 225.802536,316.803284 228.005219,316.634399 
	C234.238495,316.488068 239.634567,316.328430 245.030640,316.168762 
	C246.229630,316.242981 247.428619,316.317169 249.067657,316.730011 
	C249.634506,318.308777 249.761292,319.548889 249.703430,320.955231 
	C249.305145,321.387115 249.182663,321.689667 248.674225,322.063843 
	C241.232056,322.098541 234.267014,322.098541 226.443207,322.098541 
	C227.136261,324.731659 227.566315,326.365479 228.058685,328.333496 
	C229.736694,328.756653 231.352341,328.845612 233.009613,329.310547 
	C233.433670,330.883759 233.816101,332.080963 234.194916,333.293823 
	C234.191315,333.309448 234.159836,333.325531 233.941772,333.266632 
	C233.402405,333.239075 233.154343,333.390381 232.621063,333.720703 
	C231.544144,333.714447 230.825668,333.649170 230.028290,333.343353 
	C229.261215,333.252289 228.573044,333.401733 227.634460,333.855408 
	C227.459976,335.872803 225.371140,338.352417 229.464142,338.902649 
	C232.597504,338.974365 235.293121,338.941650 238.362183,338.983276 
	C239.493057,339.015747 240.250458,338.973877 241.386566,339.001221 
	C243.533325,338.876190 245.301407,338.681946 247.362701,338.643188 
	C248.376740,341.058167 249.097549,343.317596 249.818359,345.577057 
z"/>
<path fill="#FEF6EA" opacity="1.000000" stroke="none" 
	d="
M343.241547,316.954102 
	C343.924469,316.968048 344.607361,316.981995 345.631653,317.420776 
	C345.127228,322.971527 349.148254,322.307953 352.006775,322.754395 
	C355.680511,323.328094 359.401459,323.599274 362.907349,324.223999 
	C362.063416,325.191040 361.414215,325.934875 360.470398,326.808105 
	C359.395935,327.897675 358.616028,328.857849 357.826050,329.857178 
	C357.815948,329.896332 357.864288,329.832947 357.585022,329.879761 
	C356.925018,330.305817 356.544250,330.685089 355.912781,331.291504 
	C353.385651,333.952576 351.109222,336.386536 348.917603,338.906311 
	C349.002441,338.992096 348.826691,338.831360 348.483337,338.909302 
	C345.171204,340.518280 345.917053,342.691437 347.110687,344.941986 
	C345.966431,344.951294 344.822174,344.960602 343.298950,344.524963 
	C343.086395,335.527466 335.339783,341.312378 332.175018,337.986450 
	C332.111786,336.689697 331.961334,335.064240 331.968231,333.439484 
	C331.982269,330.142029 330.840454,325.785645 332.495697,323.846771 
	C334.138947,321.921814 338.634125,322.439941 341.872742,321.854248 
	C342.168640,321.800781 342.421997,321.512024 342.971710,321.150757 
	C343.053314,319.881714 343.147430,318.417908 343.241547,316.954102 
z"/>
<path fill="#F4975B" opacity="1.000000" stroke="none" 
	d="
M343.166016,316.943359 
	C343.147430,318.417908 343.053314,319.881714 342.971710,321.150757 
	C342.421997,321.512024 342.168640,321.800781 341.872742,321.854248 
	C338.634125,322.439941 334.138947,321.921814 332.495697,323.846771 
	C330.840454,325.785645 331.982269,330.142029 331.968231,333.439484 
	C331.961334,335.064240 332.111786,336.689697 332.175018,337.986450 
	C335.339783,341.312378 343.086395,335.527466 342.870941,344.487732 
	C336.189850,344.952606 329.557800,345.009735 322.214111,345.059326 
	C321.336914,345.082642 321.171326,345.113556 321.005707,345.144501 
	C320.554871,345.116272 320.104065,345.088043 318.915100,345.053711 
	C313.192291,345.064667 315.388824,341.550018 315.705322,339.156860 
	C318.414093,339.079010 320.702271,339.011047 323.385376,338.997070 
	C324.483246,337.694641 325.186157,336.338226 325.965698,334.589355 
	C325.984741,333.136749 325.927155,332.076630 325.953125,330.566559 
	C326.036682,327.563019 326.036682,325.009399 326.036682,322.107239 
	C323.045227,322.107239 320.838196,322.429901 318.792267,321.994934 
	C317.405457,321.700104 316.244904,320.341003 314.983154,319.457855 
	C316.217529,318.557983 317.431000,316.914459 318.689697,316.879059 
	C326.819061,316.650391 334.958313,316.772797 343.094299,316.780029 
	C343.094299,316.780029 343.090454,316.932587 343.166016,316.943359 
z"/>
<path fill="#F4975B" opacity="1.000000" stroke="none" 
	d="
M289.386414,320.107513 
	C289.350433,325.395813 289.314453,330.684113 289.236084,336.813141 
	C290.319336,338.343262 291.406677,339.538483 292.577698,339.626984 
	C296.055176,339.889862 299.568665,339.625092 303.062103,339.743469 
	C305.870605,339.838623 306.921387,338.624084 306.867279,335.873077 
	C306.742859,329.546997 306.779968,323.217773 306.751495,316.889801 
	C306.751495,316.889801 306.858704,316.866760 307.294556,316.865906 
	C309.122955,316.956055 310.515442,317.047089 311.935181,317.575409 
	C312.074921,320.350861 312.187439,322.688995 312.216553,325.434235 
	C312.186310,327.218628 312.239441,328.595978 312.194824,330.397766 
	C312.162140,332.556641 312.227264,334.291016 312.212585,336.389282 
	C312.167664,337.492615 312.202515,338.232086 312.141296,339.300842 
	C311.304108,341.167450 310.562988,342.704803 309.821838,344.242188 
	C309.821869,344.242188 309.350159,344.396881 308.746826,344.611816 
	C306.091248,344.959106 304.039032,345.091492 301.986816,345.223877 
	C297.636475,345.146515 293.286163,345.069183 288.271027,344.734741 
	C286.821716,344.191406 286.037170,343.905151 285.138885,343.316895 
	C284.585297,342.035400 284.145508,341.055908 283.794434,339.611145 
	C283.900574,331.753387 283.917969,324.360931 283.935394,316.968445 
	C283.935394,316.968445 283.997467,316.993805 284.400421,316.980103 
	C287.318420,316.572845 289.128418,317.207977 289.386414,320.107513 
z"/>
<path fill="#F39B64" opacity="1.000000" stroke="none" 
	d="
M144.674316,316.158569 
	C147.658493,316.137207 150.365860,315.890533 152.933044,316.379578 
	C154.091446,316.600250 154.970703,318.286316 155.976624,319.307526 
	C154.956329,320.248291 153.980209,321.939056 152.908203,322.002197 
	C147.785019,322.304016 142.626556,322.359222 137.499039,322.115448 
	C133.898361,321.944275 132.826782,323.376953 133.021515,326.759918 
	C133.239243,330.542816 133.071472,334.347870 133.071472,338.919128 
	C140.726013,338.919128 148.060776,338.919128 155.856171,338.919128 
	C155.856171,341.137085 155.856171,342.579407 155.801147,344.441650 
	C154.749252,344.941254 153.752350,345.020935 151.958786,345.086853 
	C149.435669,345.128754 147.709244,345.184418 145.982803,345.240082 
	C143.950348,345.197845 141.917877,345.155579 139.038940,345.099152 
	C136.788925,345.122559 135.385376,345.160156 133.981842,345.197754 
	C133.243225,345.107178 132.504608,345.016632 131.164871,344.682312 
	C129.343811,341.955841 128.123856,339.473083 126.903908,336.990356 
	C126.992485,331.981262 127.081055,326.972168 127.415085,321.308960 
	C128.440155,319.434418 129.219788,318.213928 129.999405,316.993469 
	C131.752701,316.746277 133.506012,316.499084 136.070251,316.255981 
	C138.913925,316.223907 140.946640,316.187714 142.979355,316.151550 
	C143.433014,316.178772 143.886673,316.206024 144.674316,316.158569 
M139.702942,344.002655 
	C152.980896,344.000488 152.980896,344.000488 153.782578,340.241913 
	C145.866943,340.241913 138.118759,340.241913 129.838409,340.241913 
	C131.655350,344.194977 135.355667,343.812714 139.702942,344.002655 
z"/>
<path fill="#FDFAF2" opacity="1.000000" stroke="none" 
	d="
M222.864410,316.884155 
	C222.405609,320.694977 221.579971,324.202057 221.129471,327.756683 
	C220.825455,330.155426 221.050430,332.621246 220.689880,335.533020 
	C219.722672,335.964478 219.104401,335.919922 218.486145,335.875397 
	C218.394821,331.734161 218.317810,327.592590 218.207977,323.451843 
	C218.107071,319.647644 216.514847,316.942230 212.397522,316.860840 
	C205.146774,316.717499 197.891144,316.820770 190.284882,316.820770 
	C190.284882,326.158844 190.284882,335.189941 190.284882,345.072571 
	C194.612793,345.072571 198.853333,345.072571 203.555054,345.153229 
	C202.445435,350.566742 198.090591,349.452179 194.691849,348.553375 
	C191.147354,347.616028 188.235413,346.377045 184.405533,348.319305 
	C182.882782,349.091553 179.772583,346.733582 177.607666,345.454468 
	C181.493317,345.094391 186.162537,345.463013 186.597305,340.815247 
	C187.214325,334.218811 186.409393,327.489349 186.122208,320.876434 
	C186.032333,320.936127 186.166275,320.771515 186.195847,320.451904 
	C185.792999,319.178741 185.360565,318.225159 184.928146,317.271576 
	C185.674423,314.858276 186.420685,312.444977 187.388260,309.315979 
	C187.895859,309.663574 189.573654,310.196411 189.740509,311.031281 
	C190.548126,315.071960 193.306244,315.118378 196.487701,315.035645 
	C201.617050,314.902252 206.762589,314.800720 211.881683,315.065125 
	C215.490356,315.251495 219.066559,316.066406 222.864410,316.884155 
z"/>
<path fill="#F39B64" opacity="1.000000" stroke="none" 
	d="
M184.599899,317.205383 
	C185.360565,318.225159 185.792999,319.178741 185.832428,320.499939 
	C183.884293,320.015839 182.382187,318.569000 180.763962,318.424713 
	C176.033539,318.002960 171.246811,318.253540 166.501633,317.942963 
	C163.137131,317.722748 161.184677,318.971344 160.267624,322.591461 
	C161.700974,322.760925 162.953674,322.909027 164.209503,323.451996 
	C164.212646,328.757019 164.212646,333.667175 164.212646,338.751770 
	C170.224869,338.751770 175.462662,338.751770 180.757324,338.751770 
	C181.031433,336.925415 181.251770,335.457397 181.791748,334.104187 
	C182.363022,336.333832 182.614655,338.448730 182.866287,340.563599 
	C183.234100,340.777710 183.601898,340.991791 183.969696,341.205902 
	C184.643799,339.667633 185.809097,338.158447 185.902222,336.585785 
	C186.212677,331.341705 186.138733,326.074860 186.212082,320.816742 
	C186.409393,327.489349 187.214325,334.218811 186.597305,340.815247 
	C186.162537,345.463013 181.493317,345.094391 177.405853,345.179810 
	C175.922455,345.201996 174.863434,345.152679 173.411026,345.170410 
	C158.228531,344.885315 158.786545,345.408081 158.752441,330.381622 
	C158.720947,316.505157 158.689163,316.379364 172.738770,316.336945 
	C175.876541,316.327484 179.015244,316.625519 182.587036,316.728577 
	C183.437576,316.829865 183.854614,316.984558 184.599899,317.205383 
z"/>
<path fill="#FEF6EA" opacity="1.000000" stroke="none" 
	d="
M241.007874,338.932007 
	C240.250458,338.973877 239.493057,339.015747 238.361221,338.647034 
	C237.654144,336.795197 237.321487,335.353973 237.350586,333.726990 
	C238.794785,333.465271 239.877213,333.389343 241.288818,333.521271 
	C242.900452,333.799713 244.184235,333.948792 245.465088,333.926788 
	C250.102219,333.847260 250.712555,332.777863 248.688782,327.623352 
	C244.593903,327.500824 240.804657,327.641479 236.565750,327.814819 
	C233.409515,327.898071 230.702927,327.948700 227.996338,327.999329 
	C227.566315,326.365479 227.136261,324.731659 226.443207,322.098541 
	C234.267014,322.098541 241.232056,322.098541 248.888153,321.922913 
	C249.682175,321.427856 249.785126,321.108429 249.888077,320.789001 
	C249.761292,319.548889 249.634506,318.308777 249.427032,316.710510 
	C250.832245,316.507080 252.318146,316.661774 254.051880,317.214325 
	C253.613907,321.083099 252.928070,324.553986 252.140076,328.752106 
	C252.059494,329.705780 252.081085,329.932220 252.102661,330.158661 
	C252.142365,332.746887 252.182083,335.335114 252.162094,338.576538 
	C252.159088,339.534760 252.311142,339.780792 252.558548,339.967834 
	C253.647537,343.863556 256.359772,345.312805 260.607788,345.322083 
	C261.004486,345.598816 260.998016,346.015076 260.998016,346.015076 
	C259.608673,346.011169 258.219330,346.007263 256.042328,346.008484 
	C254.500504,347.005005 253.746353,347.996399 252.992188,348.987793 
	C252.551300,348.988281 252.110413,348.988770 251.316650,348.692993 
	C250.648346,347.931274 250.332901,347.465851 250.017471,347.000397 
	C249.991531,346.762573 249.965576,346.524719 249.878998,345.931976 
	C249.097549,343.317596 248.376740,341.058167 247.315887,338.246155 
	C243.139069,334.582153 242.000275,334.818481 241.007874,338.932007 
z"/>
<path fill="#F39B64" opacity="1.000000" stroke="none" 
	d="
M360.765015,326.678711 
	C361.414215,325.934875 362.063416,325.191040 363.161316,324.125854 
	C364.086426,323.535431 364.562836,323.266388 365.425415,323.047668 
	C367.350189,323.478027 368.888763,323.858093 370.427338,324.238159 
	C368.287140,326.632019 366.146942,329.025909 363.473969,331.724670 
	C362.251770,332.891571 361.562347,333.753601 360.872925,334.615662 
	C360.178864,335.716492 359.484802,336.817352 358.268402,338.746643 
	C363.929749,338.746643 368.936859,338.746643 374.393402,338.746643 
	C374.393402,341.144318 374.393402,342.829071 374.393402,344.991272 
	C365.538513,344.991272 356.783875,344.991272 347.569977,344.966614 
	C345.917053,342.691437 345.171204,340.518280 348.507294,339.267242 
	C348.757996,340.842346 348.641418,342.137390 348.594330,342.660431 
	C356.819397,343.293793 364.400909,345.357513 371.780426,343.303558 
	C371.801880,342.812347 371.823303,342.321106 371.844757,341.829895 
	C364.174103,340.826782 356.503448,339.823639 348.832794,338.820526 
	C351.109222,336.386536 353.385651,333.952576 356.195984,331.249634 
	C357.108032,330.598083 357.486176,330.215515 357.864288,329.832947 
	C357.864288,329.832947 357.815948,329.896332 358.191742,329.875580 
	C359.300018,328.796112 360.032501,327.737396 360.765015,326.678711 
z"/>
<path fill="#FEF6EA" opacity="1.000000" stroke="none" 
	d="
M312.299957,325.027161 
	C312.187439,322.688995 312.074921,320.350861 311.970642,317.292755 
	C311.985016,316.383240 311.991089,316.193695 311.997131,316.004181 
	C313.740448,315.672302 315.483765,315.340424 318.028320,315.002075 
	C320.217834,314.999084 321.606140,315.002594 322.994415,315.006104 
	C326.287231,315.006104 329.583435,315.097351 332.871826,314.976807 
	C335.428223,314.882996 338.726562,316.183289 339.465912,311.903259 
	C339.525604,311.557953 340.847015,311.430634 341.582123,311.202026 
	C342.068909,312.791016 342.555695,314.380035 343.068420,316.374542 
	C334.958313,316.772797 326.819061,316.650391 318.689697,316.879059 
	C317.431000,316.914459 316.217529,318.557983 314.983154,319.457855 
	C316.244904,320.341003 317.405457,321.700104 318.792267,321.994934 
	C320.838196,322.429901 323.045227,322.107239 326.036682,322.107239 
	C326.036682,325.009399 326.036682,327.563019 325.585632,330.473389 
	C324.522461,329.068787 323.910339,327.307465 323.246552,325.397522 
	C320.435486,325.049133 317.552246,324.625092 314.653870,324.377777 
	C313.893219,324.312866 313.085876,324.795807 312.299957,325.027161 
z"/>
<path fill="#FB914E" opacity="1.000000" stroke="none" 
	d="
M370.682556,324.168213 
	C368.888763,323.858093 367.350189,323.478027 365.323700,322.655426 
	C360.488007,321.824860 356.146576,321.302124 351.790192,321.095581 
	C348.826508,320.955109 346.651855,320.540863 348.028961,316.794739 
	C348.762421,316.755981 349.495911,316.717255 350.860718,317.040405 
	C356.951782,317.572388 362.422638,317.592834 367.864868,317.998260 
	C369.636444,318.130249 371.333099,319.267487 373.075897,320.276733 
	C373.142242,320.823059 373.196686,321.037598 373.251160,321.252136 
	C373.251160,321.252136 373.159882,321.226440 372.883972,321.283295 
	C372.461792,321.714813 372.315521,322.089508 372.169250,322.464172 
	C371.758759,323.008850 371.348236,323.553558 370.682556,324.168213 
z"/>
<path fill="#FDFAF2" opacity="1.000000" stroke="none" 
	d="
M244.974396,315.799957 
	C239.634567,316.328430 234.238495,316.488068 228.390976,316.491150 
	C227.568512,314.810791 227.197495,313.286957 226.669220,311.117218 
	C233.028107,311.560089 239.953461,308.561646 244.974396,315.799957 
z"/>
<path fill="#FDE4CE" opacity="1.000000" stroke="none" 
	d="
M306.385254,317.028717 
	C306.779968,323.217773 306.742859,329.546997 306.867279,335.873077 
	C306.921387,338.624084 305.870605,339.838623 303.062103,339.743469 
	C299.568665,339.625092 296.055176,339.889862 292.577698,339.626984 
	C291.406677,339.538483 290.319336,338.343262 289.297546,337.268066 
	C293.780365,337.258484 298.158112,337.817657 302.539612,337.848877 
	C303.367004,337.854767 304.849152,335.804535 304.929993,334.627563 
	C305.222870,330.364075 304.963928,326.065918 305.093689,321.786285 
	C305.140564,320.238831 305.695770,318.706726 306.385254,317.028717 
z"/>
<path fill="#FDFAF2" opacity="1.000000" stroke="none" 
	d="
M229.996521,345.615295 
	C235.004227,345.174835 240.028763,345.121979 245.512939,345.141968 
	C242.296936,348.320038 246.584808,349.797058 247.457581,351.854584 
	C247.182693,352.245636 246.911011,352.741608 246.841934,352.714844 
	C241.818878,350.768097 236.992889,348.178925 231.329666,348.400299 
	C230.922760,348.416199 230.453568,346.839233 229.996521,345.615295 
z"/>
<path fill="#FDE4CE" opacity="1.000000" stroke="none" 
	d="
M283.569611,317.011047 
	C283.917969,324.360931 283.900574,331.753387 283.423950,339.586731 
	C282.218719,339.955292 281.472687,339.882996 280.726685,339.810699 
	C280.768463,334.669830 280.961334,329.523438 280.772491,324.391052 
	C280.703522,322.517273 279.727173,320.676849 279.037140,318.463562 
	C280.340942,317.755127 281.772400,317.404388 283.569611,317.011047 
z"/>
<path fill="#EFAF89" opacity="1.000000" stroke="none" 
	d="
M373.064026,319.944916 
	C371.333099,319.267487 369.636444,318.130249 367.864868,317.998260 
	C362.422638,317.592834 356.951782,317.572388 351.227509,317.064087 
	C357.980103,316.550934 365.001923,316.169800 372.011414,316.329285 
	C374.062286,316.375946 376.720764,317.599640 374.187714,320.678894 
	C373.603912,320.266937 373.367920,320.066040 373.064026,319.944916 
z"/>
<path fill="#FEF6EA" opacity="1.000000" stroke="none" 
	d="
M309.937225,344.637756 
	C310.562988,342.704803 311.304108,341.167450 312.521423,339.307129 
	C313.760010,339.045044 314.522369,339.105927 315.284729,339.166779 
	C315.388824,341.550018 313.192291,345.064667 318.581299,345.119690 
	C315.768433,350.465607 314.395813,350.441254 309.937225,344.637756 
z"/>
<path fill="#FCFBF8" opacity="1.000000" stroke="none" 
	d="
M323.085297,314.610535 
	C321.606140,315.002594 320.217834,314.999084 318.412750,314.992279 
	C318.914307,313.678101 319.745789,311.319366 320.765869,311.234772 
	C325.589813,310.834686 330.465302,311.056274 335.382599,312.250183 
	C331.313782,312.905121 327.244995,313.560059 323.085297,314.610535 
z"/>
<path fill="#EFAF89" opacity="1.000000" stroke="none" 
	d="
M347.859863,316.617493 
	C346.651855,320.540863 348.826508,320.955109 351.790192,321.095581 
	C356.146576,321.302124 360.488007,321.824860 364.937500,322.605103 
	C364.562836,323.266388 364.086426,323.535431 363.356049,323.902618 
	C359.401459,323.599274 355.680511,323.328094 352.006775,322.754395 
	C349.148254,322.307953 345.127228,322.971527 345.973267,317.421692 
	C346.545959,316.811890 347.118347,316.626038 347.859863,316.617493 
z"/>
<path fill="#FDFAF2" opacity="1.000000" stroke="none" 
	d="
M142.985870,315.707336 
	C140.946640,316.187714 138.913925,316.223907 136.449753,316.197571 
	C135.080231,314.702698 134.142166,313.270294 133.233780,311.883179 
	C138.266815,309.355225 142.524673,310.609253 142.985870,315.707336 
z"/>
<path fill="#FDFAF2" opacity="1.000000" stroke="none" 
	d="
M208.288376,345.428711 
	C210.708679,344.780212 213.375534,344.367828 216.423889,343.870392 
	C218.391129,345.792206 219.976837,347.799072 221.924194,350.263641 
	C216.043976,352.747223 213.523117,345.086609 208.288376,345.428711 
z"/>
<path fill="#FDFAF2" opacity="1.000000" stroke="none" 
	d="
M261.035461,346.371490 
	C260.998016,346.015076 261.004486,345.598816 261.006927,345.390930 
	C262.009430,345.813812 263.009460,346.444580 264.155334,347.724640 
	C264.874634,348.592529 265.448120,348.811096 266.021606,349.029663 
	C264.771667,354.021881 261.222626,353.169769 256.842224,352.478577 
	C258.928772,350.527039 263.404022,350.699127 261.035461,346.371490 
z"/>
<path fill="#FDFAF2" opacity="1.000000" stroke="none" 
	d="
M280.497833,340.036865 
	C281.472687,339.882996 282.218719,339.955292 283.335205,340.052002 
	C284.145508,341.055908 284.585297,342.035400 285.067657,343.699860 
	C285.105957,344.898346 285.101746,345.411865 285.097534,345.925354 
	C283.323090,346.278656 281.548645,346.631958 279.382996,346.591064 
	C278.975708,345.418030 278.959564,344.639130 278.943451,343.860260 
	C279.385284,342.661194 279.827148,341.462097 280.497833,340.036865 
z"/>
<path fill="#FDFAF2" opacity="1.000000" stroke="none" 
	d="
M129.795258,316.714722 
	C129.219788,318.213928 128.440155,319.434418 127.419876,320.844421 
	C125.593498,320.964142 124.007782,320.894287 122.345093,320.821045 
	C123.447899,315.312927 125.084084,314.426880 129.795258,316.714722 
z"/>
<path fill="#FDFAF2" opacity="1.000000" stroke="none" 
	d="
M117.016441,337.384094 
	C117.005798,332.531586 117.005798,328.105896 117.005798,323.680206 
	C117.503441,323.684814 118.001083,323.689392 118.498726,323.693970 
	C118.498726,328.882690 118.498726,334.071381 118.498726,340.224823 
	C117.709976,338.931030 117.368530,338.370972 117.016441,337.384094 
z"/>
<path fill="#FDFAF2" opacity="1.000000" stroke="none" 
	d="
M126.547470,336.999023 
	C128.123856,339.473083 129.343811,341.955841 130.792297,344.693481 
	C128.806137,346.900421 126.810631,346.156555 126.057030,343.776123 
	C125.396034,341.688232 122.109833,339.125763 126.547470,336.999023 
z"/>
<path fill="#FDFAF2" opacity="1.000000" stroke="none" 
	d="
M200.996460,311.002441 
	C203.400772,311.002441 205.348587,311.002441 207.296387,311.002441 
	C207.306290,311.434723 207.316193,311.867004 207.326111,312.299286 
	C203.130661,312.299286 198.935226,312.299286 194.739792,312.299286 
	C194.693588,311.972260 194.647400,311.645233 194.601212,311.318207 
	C196.580795,311.212952 198.560364,311.107697 200.996460,311.002441 
z"/>
<path fill="#FDFAF2" opacity="1.000000" stroke="none" 
	d="
M302.058411,345.550232 
	C304.039032,345.091492 306.091248,344.959106 308.586182,344.800964 
	C308.479828,346.091217 307.930786,347.407227 307.059418,349.495697 
	C305.238007,348.158447 303.684021,347.017487 302.058411,345.550232 
z"/>
<path fill="#FEF6EA" opacity="1.000000" stroke="none" 
	d="
M278.557159,343.959412 
	C278.959564,344.639130 278.975708,345.418030 278.988586,346.585022 
	C277.244537,346.678802 275.503693,346.384491 273.085266,346.066833 
	C271.941833,346.366058 271.476013,346.688690 271.010162,347.011292 
	C270.537781,347.335175 270.065430,347.659088 269.291718,347.986450 
	C270.175659,346.985992 271.215088,345.617249 272.583069,345.070343 
	C274.305267,344.381836 276.295990,344.365112 278.557159,343.959412 
z"/>
<path fill="#FDFAF2" opacity="1.000000" stroke="none" 
	d="
M221.452744,341.697021 
	C222.510712,342.627075 223.568680,343.557129 224.820541,344.725647 
	C222.504303,344.691040 219.994156,344.417969 217.136353,343.943481 
	C216.951202,343.215240 217.113739,342.688416 217.968872,342.039307 
	C219.591904,341.843689 220.522324,341.770355 221.452744,341.697021 
z"/>
<path fill="#FDFAF2" opacity="1.000000" stroke="none" 
	d="
M133.994293,345.559448 
	C135.385376,345.160156 136.788925,345.122559 138.607559,345.164368 
	C138.212906,346.454315 137.403168,347.664917 136.593430,348.875488 
	C135.731216,347.890717 134.868988,346.905945 133.994293,345.559448 
z"/>
<path fill="#FDE4CE" opacity="1.000000" stroke="none" 
	d="
M289.692993,319.986847 
	C289.128418,317.207977 287.318420,316.572845 284.386414,316.949646 
	C285.696716,316.421600 287.424042,315.910309 289.151367,315.399048 
	C289.434113,316.888092 289.716858,318.377136 289.692993,319.986847 
z"/>
<path fill="#FDFAF2" opacity="1.000000" stroke="none" 
	d="
M146.035309,345.577087 
	C147.709244,345.184418 149.435669,345.128754 151.587982,345.150238 
	C150.959854,346.558441 149.905853,347.889526 148.420898,349.764893 
	C147.367126,348.025635 146.727463,346.969849 146.035309,345.577087 
z"/>
<path fill="#FDFAF2" opacity="1.000000" stroke="none" 
	d="
M158.894958,307.669495 
	C157.832092,308.183197 156.820404,308.339752 155.808746,308.496277 
	C155.934326,307.512085 156.059906,306.527893 156.185486,305.543701 
	C157.105698,306.133240 158.025925,306.722778 158.894958,307.669495 
z"/>
<path fill="#FDFAF2" opacity="1.000000" stroke="none" 
	d="
M219.761322,312.816589 
	C219.206497,311.679901 219.012161,310.518402 218.817810,309.356873 
	C219.567078,309.499390 220.316345,309.641907 221.065598,309.784424 
	C220.750992,310.786865 220.436401,311.789337 219.761322,312.816589 
z"/>
<path fill="#FDFAF2" opacity="1.000000" stroke="none" 
	d="
M150.143463,308.151917 
	C148.984238,307.823853 148.070007,307.249115 147.155792,306.674377 
	C147.660553,306.168610 148.165314,305.662842 148.670090,305.157074 
	C149.242874,306.073120 149.815659,306.989197 150.143463,308.151917 
z"/>
<path fill="#FEF6EA" opacity="1.000000" stroke="none" 
	d="
M277.991394,316.635773 
	C277.540314,316.980560 277.087372,316.953827 276.114990,316.627289 
	C275.048584,316.170807 274.501556,316.014130 273.954529,315.857422 
	C274.780914,315.270020 275.549835,314.441498 276.464233,314.223724 
	C276.792084,314.145660 277.470856,315.541229 277.991394,316.635773 
z"/>
<path fill="#FDFAF2" opacity="1.000000" stroke="none" 
	d="
M253.364502,348.984619 
	C253.746353,347.996399 254.500504,347.005005 255.625504,346.005585 
	C255.243164,346.992188 254.489990,347.986816 253.364502,348.984619 
z"/>
<path fill="#FDE4CE" opacity="1.000000" stroke="none" 
	d="
M311.673523,315.867920 
	C311.991089,316.193695 311.985016,316.383240 311.943420,316.855469 
	C310.515442,317.047089 309.122955,316.956055 307.311584,316.813812 
	C308.378479,316.418945 309.864166,316.075287 311.673523,315.867920 
z"/>
<path fill="#FDFAF2" opacity="1.000000" stroke="none" 
	d="
M155.018982,350.403442 
	C155.215225,351.220642 155.089279,351.985199 154.963348,352.749756 
	C154.525757,352.661987 154.088150,352.574249 153.650543,352.486511 
	C153.999298,351.774628 154.348038,351.062744 155.018982,350.403442 
z"/>
<path fill="#EFAF89" opacity="1.000000" stroke="none" 
	d="
M361.195618,334.621124 
	C361.562347,333.753601 362.251770,332.891571 363.211853,331.958282 
	C362.827759,332.800232 362.173035,333.713409 361.195618,334.621124 
z"/>
<path fill="#FDE4CE" opacity="1.000000" stroke="none" 
	d="
M285.424866,345.934814 
	C285.101746,345.411865 285.105957,344.898346 285.181427,344.001892 
	C286.037170,343.905151 286.821716,344.191406 287.806885,344.721222 
	C287.255737,345.291290 286.503967,345.617798 285.424866,345.934814 
z"/>
<path fill="#FDFAF2" opacity="1.000000" stroke="none" 
	d="
M210.334473,351.493042 
	C209.989868,352.036499 209.430069,352.362457 208.870270,352.688416 
	C208.742783,352.409729 208.615295,352.131012 208.487808,351.852325 
	C209.031631,351.660065 209.575455,351.467773 210.334473,351.493042 
z"/>
<path fill="#FEF6EA" opacity="1.000000" stroke="none" 
	d="
M266.358643,349.021362 
	C265.448120,348.811096 264.874634,348.592529 264.176910,348.081848 
	C265.425171,347.836456 266.797699,347.883148 268.581787,347.959656 
	C268.227509,348.330688 267.461578,348.671875 266.358643,349.021362 
z"/>
<path fill="#FDFAF2" opacity="1.000000" stroke="none" 
	d="
M273.606934,351.532684 
	C274.058472,351.649200 274.335297,351.933502 274.590729,352.235840 
	C274.597260,352.243561 274.369202,352.449493 274.250549,352.562988 
	C273.976837,352.276276 273.703125,351.989563 273.606934,351.532684 
z"/>
<path fill="#FDFAF2" opacity="1.000000" stroke="none" 
	d="
M249.785370,347.169067 
	C250.332901,347.465851 250.648346,347.931274 250.985992,348.691620 
	C250.523224,348.436920 250.038254,347.887329 249.785370,347.169067 
z"/>
<path fill="#FDFAF2" opacity="1.000000" stroke="none" 
	d="
M147.392746,351.954529 
	C147.790176,351.712036 148.185593,351.713715 148.578796,351.744019 
	C148.589844,351.744873 148.577332,352.051331 148.575806,352.215271 
	C148.180679,352.211090 147.785538,352.206909 147.392746,351.954529 
z"/>
<path fill="#FDE4CE" opacity="1.000000" stroke="none" 
	d="
M273.920074,316.011108 
	C274.501556,316.014130 275.048584,316.170807 275.786194,316.536255 
	C275.492157,316.754303 275.007568,316.763550 274.184204,316.625000 
	C273.845490,316.477173 273.885620,316.164764 273.920074,316.011108 
z"/>
<path fill="#FDFAF2" opacity="1.000000" stroke="none" 
	d="
M271.306396,346.986633 
	C271.476013,346.688690 271.941833,346.366058 272.706726,346.026306 
	C272.538055,346.326752 272.070343,346.644379 271.306396,346.986633 
z"/>
<path fill="#FDE4CE" opacity="1.000000" stroke="none" 
	d="
M278.854218,317.834473 
	C278.579834,317.994141 278.315216,317.804321 278.024292,317.290588 
	C278.218933,317.233826 278.507599,317.406616 278.854218,317.834473 
z"/>
<path fill="#FEF6EA" opacity="1.000000" stroke="none" 
	d="
M321.097046,345.289307 
	C321.171326,345.113556 321.336914,345.082642 321.747925,345.111725 
	C321.725037,345.259155 321.456696,345.346619 321.097046,345.289307 
z"/>
<path fill="#F39B64" opacity="1.000000" stroke="none" 
	d="
M373.075897,320.276733 
	C373.367920,320.066040 373.603912,320.266937 373.877075,320.758759 
	C373.982208,320.969910 373.655090,321.215363 373.453125,321.233765 
	C373.196686,321.037598 373.142242,320.823059 373.075897,320.276733 
z"/>
<path fill="#F39B64" opacity="1.000000" stroke="none" 
	d="
M372.429657,322.319305 
	C372.315521,322.089508 372.461792,321.714813 372.904572,321.240601 
	C373.030762,321.485535 372.860413,321.829987 372.429657,322.319305 
z"/>
<path fill="#FCFBF8" opacity="1.000000" stroke="none" 
	d="
M222.800049,202.293121 
	C221.467865,198.611832 220.380081,195.112976 219.687103,191.537613 
	C218.475494,185.286392 219.239822,183.065628 225.233948,181.191589 
	C242.533218,175.783035 260.040436,174.557480 277.584320,180.408508 
	C281.074127,181.572388 282.930542,183.831711 282.175049,187.552673 
	C281.193695,192.386032 279.961151,197.168396 278.806641,202.349091 
	C260.258453,202.630676 241.740341,202.535904 222.800049,202.293121 
z"/>
<path fill="#FCFBF8" opacity="1.000000" stroke="none" 
	d="
M241.115128,246.104309 
	C240.546051,246.085815 240.381424,246.064896 240.216797,246.043976 
	C241.576447,243.043167 242.708740,239.910187 244.356110,237.076630 
	C246.211166,233.885818 250.204956,232.464355 252.757797,233.863434 
	C255.694763,235.472977 257.481110,239.276169 259.586853,242.254105 
	C260.267944,243.217285 260.379852,244.582947 260.777222,245.844116 
	C258.684418,246.514160 257.585114,247.769714 260.805206,249.524658 
	C254.122635,258.067474 247.278549,258.936249 241.519592,249.888855 
	C241.519592,248.320663 241.519592,247.211273 241.115128,246.104309 
z"/>
<path fill="#FEF6EA" opacity="1.000000" stroke="none" 
	d="
M263.178680,322.128357 
	C267.129944,322.142212 270.607513,322.142212 274.598175,322.142212 
	C274.598175,327.660736 274.598175,333.007385 274.598175,338.566040 
	C271.921234,339.797180 270.111694,339.397339 269.185455,336.103394 
	C268.925537,335.179169 267.313721,333.848541 266.635620,334.011261 
	C265.596924,334.260437 264.877197,335.696075 263.935486,336.530426 
	C262.893127,337.453949 261.656525,339.036804 260.682861,338.914368 
	C259.691772,338.789764 258.312195,337.012634 258.168182,335.829437 
	C257.810120,332.887268 258.291260,329.848755 258.004761,326.890656 
	C257.645782,323.184357 258.934937,321.541840 263.178680,322.128357 
z"/>
<path fill="#FDE4CE" opacity="1.000000" stroke="none" 
	d="
M252.611710,339.740356 
	C252.311142,339.780792 252.159088,339.534760 252.112274,339.004669 
	C252.423172,338.935242 252.604080,339.179657 252.611710,339.740356 
z"/>
<path fill="#FDE4CE" opacity="1.000000" stroke="none" 
	d="
M252.252899,330.018799 
	C252.081085,329.932220 252.059494,329.705780 252.084335,329.139862 
	C252.264557,329.030182 252.425583,329.249603 252.518860,329.494812 
	C252.556519,329.593842 252.446136,329.749237 252.252899,330.018799 
z"/>
<path fill="#FEF8F1" opacity="1.000000" stroke="none" 
	d="
M207.838089,339.121063 
	C195.906662,339.193512 196.118607,339.186218 195.721313,327.639984 
	C195.567627,323.173645 196.837128,321.926880 201.286682,322.066498 
	C213.126999,322.438019 213.010345,322.234009 212.911545,334.672333 
	C212.883713,338.175323 211.811813,339.660187 207.838089,339.121063 
z"/>
<path fill="#FDE4CE" opacity="1.000000" stroke="none" 
	d="
M221.376694,341.299561 
	C220.522324,341.770355 219.591904,341.843689 218.197144,341.870056 
	C217.886795,340.114532 218.040787,338.406006 218.340454,336.286438 
	C219.104401,335.919922 219.722672,335.964478 220.653229,335.998627 
	C221.077240,337.626190 221.188950,339.264160 221.376694,341.299561 
z"/>
<path fill="#FB914E" opacity="1.000000" stroke="none" 
	d="
M240.959641,333.313416 
	C239.877213,333.389343 238.794785,333.465271 237.031921,333.549225 
	C235.633835,333.464233 234.916183,333.371216 234.198532,333.278198 
	C233.816101,332.080963 233.433670,330.883759 233.480164,329.315460 
	C246.343643,328.993988 246.343643,328.993988 247.669037,331.185028 
	C245.433548,331.897552 243.196594,332.605469 240.959641,333.313416 
z"/>
<path fill="#EFAF89" opacity="1.000000" stroke="none" 
	d="
M241.288818,333.521271 
	C243.196594,332.605469 245.433548,331.897552 247.669037,331.185028 
	C246.343643,328.993988 246.343643,328.993988 233.438538,328.939484 
	C231.352341,328.845612 229.736694,328.756653 228.058685,328.333496 
	C230.702927,327.948700 233.409515,327.898071 237.020447,327.875793 
	C241.614655,327.898254 245.304520,327.892395 248.994385,327.886536 
	C250.712555,332.777863 250.102219,333.847260 245.465088,333.926788 
	C244.184235,333.948792 242.900452,333.799713 241.288818,333.521271 
z"/>
<path fill="#FCFBF8" opacity="1.000000" stroke="none" 
	d="
M234.194916,333.293823 
	C234.916183,333.371216 235.633835,333.464233 236.670151,333.734985 
	C237.321487,335.353973 237.654144,336.795197 237.987762,338.572693 
	C235.293121,338.941650 232.597504,338.974365 229.458984,338.513733 
	C229.015625,336.712494 229.015167,335.404633 229.297546,333.989288 
	C229.755997,333.782501 229.931595,333.683197 230.107193,333.583893 
	C230.825668,333.649170 231.544144,333.714447 232.840912,333.787964 
	C233.760071,333.787170 234.006943,333.630280 234.159836,333.325531 
	C234.159836,333.325531 234.191315,333.309448 234.194916,333.293823 
z"/>
<path fill="#FCFBF8" opacity="1.000000" stroke="none" 
	d="
M241.386566,339.001221 
	C242.000275,334.818481 243.139069,334.582153 247.022675,338.090637 
	C245.301407,338.681946 243.533325,338.876190 241.386566,339.001221 
z"/>
<path fill="#FEF6EA" opacity="1.000000" stroke="none" 
	d="
M229.014709,334.096802 
	C229.015167,335.404633 229.015625,336.712494 229.021255,338.409271 
	C225.371140,338.352417 227.459976,335.872803 227.906662,334.014709 
	C228.624451,333.945465 228.819580,334.021149 229.014709,334.096802 
z"/>
<path fill="#EFAF89" opacity="1.000000" stroke="none" 
	d="
M229.297546,333.989288 
	C228.819580,334.021149 228.624451,333.945465 228.157104,333.710480 
	C228.573044,333.401733 229.261215,333.252289 230.028290,333.343353 
	C229.931595,333.683197 229.755997,333.782501 229.297546,333.989288 
z"/>
<path fill="#EFAF89" opacity="1.000000" stroke="none" 
	d="
M233.941772,333.266632 
	C234.006943,333.630280 233.760071,333.787170 233.199371,333.728943 
	C233.154343,333.390381 233.402405,333.239075 233.941772,333.266632 
z"/>
<path fill="#FDE4CE" opacity="1.000000" stroke="none" 
	d="
M249.703430,320.955231 
	C249.785126,321.108429 249.682175,321.427856 249.365295,321.888184 
	C249.182663,321.689667 249.305145,321.387115 249.703430,320.955231 
z"/>
<path fill="#EFAF89" opacity="1.000000" stroke="none" 
	d="
M360.470398,326.808105 
	C360.032501,327.737396 359.300018,328.796112 358.201843,329.836426 
	C358.616028,328.857849 359.395935,327.897675 360.470398,326.808105 
z"/>
<path fill="#EFAF89" opacity="1.000000" stroke="none" 
	d="
M357.585022,329.879761 
	C357.486176,330.215515 357.108032,330.598083 356.446716,331.022522 
	C356.544250,330.685089 356.925018,330.305817 357.585022,329.879761 
z"/>
<path fill="#FFFFFF" opacity="1.000000" stroke="none" 
	d="
M315.705322,339.156860 
	C314.522369,339.105927 313.760010,339.045044 312.617493,338.977905 
	C312.202515,338.232086 312.167664,337.492615 312.547699,336.287415 
	C312.739258,333.872223 312.515900,331.922760 312.292542,329.973297 
	C312.239441,328.595978 312.186310,327.218628 312.216553,325.434235 
	C313.085876,324.795807 313.893219,324.312866 314.653870,324.377777 
	C317.552246,324.625092 320.435486,325.049133 323.246552,325.397522 
	C323.910339,327.307465 324.522461,329.068787 325.502075,330.923279 
	C325.927155,332.076630 325.984741,333.136749 325.621338,334.634644 
	C324.463715,336.362610 323.727081,337.652863 322.990448,338.943085 
	C320.702271,339.011047 318.414093,339.079010 315.705322,339.156860 
z"/>
<path fill="#FEF6EA" opacity="1.000000" stroke="none" 
	d="
M323.385376,338.997070 
	C323.727081,337.652863 324.463715,336.362610 325.544708,335.027100 
	C325.186157,336.338226 324.483246,337.694641 323.385376,338.997070 
z"/>
<path fill="#FEF6EA" opacity="1.000000" stroke="none" 
	d="
M312.194794,330.397766 
	C312.515900,331.922760 312.739258,333.872223 312.627472,335.923553 
	C312.227264,334.291016 312.162140,332.556641 312.194794,330.397766 
z"/>
<path fill="#FB914E" opacity="1.000000" stroke="none" 
	d="
M139.235870,344.002502 
	C135.355667,343.812714 131.655350,344.194977 129.838409,340.241913 
	C138.118759,340.241913 145.866943,340.241913 153.782578,340.241913 
	C152.980896,344.000488 152.980896,344.000488 139.235870,344.002502 
z"/>
<path fill="#FEF8F1" opacity="1.000000" stroke="none" 
	d="
M181.472107,333.989380 
	C181.251770,335.457397 181.031433,336.925415 180.757324,338.751770 
	C175.462662,338.751770 170.224869,338.751770 164.212646,338.751770 
	C164.212646,333.667175 164.212646,328.757019 164.523483,323.209747 
	C169.294006,322.414886 173.761337,322.061646 178.208023,322.235840 
	C179.329376,322.279724 180.384689,324.010162 181.363174,325.379425 
	C181.329208,327.206116 181.402420,328.618927 181.374817,330.419678 
	C181.340027,331.868195 181.406067,332.928802 181.472107,333.989380 
z"/>
<path fill="#FB914E" opacity="1.000000" stroke="none" 
	d="
M181.791748,334.104187 
	C181.406067,332.928802 181.340027,331.868195 181.679276,330.308624 
	C181.879822,328.194946 181.675079,326.580261 181.470352,324.965576 
	C180.384689,324.010162 179.329376,322.279724 178.208023,322.235840 
	C173.761337,322.061646 169.294006,322.414886 164.520355,322.814880 
	C162.953674,322.909027 161.700974,322.760925 160.267624,322.591461 
	C161.184677,318.971344 163.137131,317.722748 166.501633,317.942963 
	C171.246811,318.253540 176.033539,318.002960 180.763962,318.424713 
	C182.382187,318.569000 183.884293,320.015839 185.802856,320.819519 
	C186.166275,320.771515 186.032333,320.936127 186.122208,320.876434 
	C186.138733,326.074860 186.212677,331.341705 185.902222,336.585785 
	C185.809097,338.158447 184.643799,339.667633 183.969696,341.205902 
	C183.601898,340.991791 183.234100,340.777710 182.866287,340.563599 
	C182.614655,338.448730 182.363022,336.333832 181.791748,334.104187 
z"/>
<path fill="#FDE4CE" opacity="1.000000" stroke="none" 
	d="
M248.688782,327.623352 
	C245.304520,327.892395 241.614655,327.898254 237.470093,327.843140 
	C240.804657,327.641479 244.593903,327.500824 248.688782,327.623352 
z"/>
<path fill="#FB914E" opacity="1.000000" stroke="none" 
	d="
M348.917603,338.906311 
	C356.503448,339.823639 364.174103,340.826782 371.844757,341.829895 
	C371.823303,342.321106 371.801880,342.812347 371.780426,343.303558 
	C364.400909,345.357513 356.819397,343.293793 348.594330,342.660431 
	C348.641418,342.137390 348.757996,340.842346 348.850647,339.189331 
	C348.826691,338.831360 349.002441,338.992096 348.917603,338.906311 
z"/>
<path fill="#F39B64" opacity="1.000000" stroke="none" 
	d="
M181.363174,325.379425 
	C181.675079,326.580261 181.879822,328.194946 181.780090,329.920715 
	C181.402420,328.618927 181.329208,327.206116 181.363174,325.379425 
z"/>
</svg>